# xmcd
#
# Track frame offsets:
#	150
#	135746
#	269555
#
# Disc length: 3631 seconds
#
# Revision: 0
# Processed by: cddbd v1.5.2PL0 Copyright (c) Steve Scherf et al.
# Submitted via: dBpowerAMP V4.0
#
DISCID=290e2d03
DTITLE=B DALVIR SINGH JI - TOO MAIN
DYEAR=2006
DGENRE=
TTITLE0=TOO MAIN
TTITLE1=MERE SAHIB
TTITLE2=FG
EXTD=
EXTT0=
EXTT1=
EXTT2=
PLAYORDER=
